Pacifico-Bold.ufo
<glyph name="parenleft" format="1">
  <advance width="355"/>
  <unicode hex="0028"/>
  <outline>
    <contour>
      <point x="43" y="-31"/>
      <point x="373" y="-131" type="curve" smooth="yes"/>
      <point x="399" y="-139"/>
      <point x="429" y="-78"/>
      <point x="395" y="-60" type="curve" smooth="yes"/>
      <point x="196" y="46"/>
      <point x="254" y="406"/>
      <point x="473" y="568" type="curve" smooth="yes"/>
      <point x="507" y="592"/>
      <point x="463" y="649"/>
      <point x="436" y="631" type="curve" smooth="yes"/>
      <point x="127" y="425"/>
    </contour>
  </outline>
</glyph>
<glyph name="parenright" format="1">
  <advance width="398"/>
  <unicode hex="0029"/>
  <outline>
    <contour>
      <point x="-5" y="-82"/>
      <point x="28" y="-149"/>
      <point x="71" y="-134" type="curve" smooth="yes"/>
      <point x="433" y="-10"/>
      <point x="445" y="391"/>
      <point x="159" y="634" type="curve" smooth="yes"/>
      <point x="133" y="656"/>
      <point x="83" y="602"/>
      <point x="116" y="568" type="curve" smooth="yes"/>
      <point x="310" y="370"/>
      <point x="273" y="54"/>
      <point x="40" y="-60" type="curve" smooth="yes"/>
    </contour>
  </outline>
</glyph>
<glyph name="hyphen" format="1">
  <advance width="387"/>
  <unicode hex="002D"/>
  <outline>
    <contour>
      <point x="138" y="229" type="curve" smooth="yes"/>
      <point x="203" y="261"/>
      <point x="246" y="280"/>
      <point x="353" y="308" type="curve" smooth="yes"/>
      <point x="376" y="314"/>
      <point x="386" y="321"/>
      <point x="386" y="339" type="curve" smooth="yes"/>
      <point x="386" y="366"/>
      <point x="365" y="373"/>
      <point x="346" y="373" type="curve"/>
      <point x="262" y="362"/>
      <point x="173" y="342"/>
      <point x="123" y="316" type="curve" smooth="yes"/>
      <point x="81" y="289"/>
      <point x="85" y="264"/>
      <point x="92" y="250" type="curve" smooth="yes"/>
      <point x="98" y="234"/>
      <point x="116" y="216"/>
    </contour>
    <contour>
      <point x="232" y="307" type="move" name="_mid"/>
    </contour>
  </outline>
</glyph>
<glyph name="three" format="1">
  <advance width="417"/>
  <unicode hex="0033"/>
  <outline>
    <contour>
      <point x="396" y="145" type="curve" smooth="yes"/>
      <point x="396" y="200"/>
      <point x="359" y="254"/>
      <point x="290" y="269" type="curve"/>
      <point x="363" y="280"/>
      <point x="384" y="345"/>
      <point x="386" y="382" type="curve" smooth="yes"/>
      <point x="387" y="452"/>
      <point x="340" y="480"/>
      <point x="280" y="489" type="curve" smooth="yes"/>
      <point x="218" y="499"/>
      <point x="142" y="469"/>
      <point x="105" y="427" type="curve" smooth="yes"/>
      <point x="84" y="401"/>
      <point x="125" y="334"/>
      <point x="170" y="384" type="curve" smooth="yes"/>
      <point x="212" y="422"/>
      <point x="280" y="422"/>
      <point x="280" y="360" type="curve" smooth="yes"/>
      <point x="280" y="311"/>
      <point x="226" y="293"/>
      <point x="195" y="293" type="curve" smooth="yes"/>
      <point x="158" y="293"/>
      <point x="143" y="282"/>
      <point x="143" y="258" type="curve" smooth="yes"/>
      <point x="143" y="232"/>
      <point x="155" y="219"/>
      <point x="176" y="219" type="curve" smooth="yes"/>
      <point x="239" y="219"/>
      <point x="296" y="187"/>
      <point x="301" y="146" type="curve" smooth="yes"/>
      <point x="315" y="31"/>
      <point x="167" y="39"/>
      <point x="133" y="112" type="curve" smooth="yes"/>
      <point x="114" y="152"/>
      <point x="38" y="116"/>
      <point x="66" y="61" type="curve" smooth="yes"/>
      <point x="97" y="-1"/>
      <point x="167" y="-24"/>
      <point x="237" y="-23" type="curve" smooth="yes"/>
      <point x="308" y="-22"/>
      <point x="396" y="15"/>
    </contour>
  </outline>
</glyph>
<glyph name="eight" format="1">
  <advance width="417"/>
  <unicode hex="0038"/>
  <outline>
    <contour>
      <point x="232" y="-18" type="curve" smooth="yes"/>
      <point x="322" y="-18"/>
      <point x="385" y="29"/>
      <point x="385" y="111" type="curve" smooth="yes"/>
      <point x="385" y="178"/>
      <point x="344" y="218"/>
      <point x="302" y="248" type="curve"/>
      <point x="364" y="276"/>
      <point x="409" y="321"/>
      <point x="409" y="408" type="curve" smooth="yes"/>
      <point x="409" y="478"/>
      <point x="348" y="502"/>
      <point x="284" y="508" type="curve" smooth="yes"/>
      <point x="188" y="518"/>
      <point x="115" y="457"/>
      <point x="115" y="367" type="curve" smooth="yes"/>
      <point x="115" y="320"/>
      <point x="159" y="283"/>
      <point x="189" y="267" type="curve"/>
      <point x="131" y="235"/>
      <point x="86" y="187"/>
      <point x="86" y="102" type="curve" smooth="yes"/>
      <point x="86" y="18"/>
      <point x="141" y="-18"/>
    </contour>
    <contour>
      <point x="216" y="65" type="curve" smooth="yes"/>
      <point x="181" y="69"/>
      <point x="174" y="94"/>
      <point x="174" y="110" type="curve" smooth="yes"/>
      <point x="174" y="158"/>
      <point x="209" y="190"/>
      <point x="240" y="207" type="curve"/>
      <point x="256" y="190"/>
      <point x="282" y="147"/>
      <point x="282" y="126" type="curve" smooth="yes"/>
      <point x="282" y="98"/>
      <point x="262" y="60"/>
    </contour>
    <contour>
      <point x="256" y="308" type="curve"/>
      <point x="241" y="324"/>
      <point x="208" y="351"/>
      <point x="208" y="377" type="curve" smooth="yes"/>
      <point x="208" y="415"/>
      <point x="234" y="428"/>
      <point x="273" y="428" type="curve" smooth="yes"/>
      <point x="282" y="428"/>
      <point x="310" y="416"/>
      <point x="310" y="387" type="curve" smooth="yes"/>
      <point x="310" y="355"/>
      <point x="274" y="321"/>
    </contour>
  </outline>
</glyph>
<glyph name="semicolon" format="1">
  <advance width="339"/>
  <unicode hex="003B"/>
  <outline>
    <contour>
      <point x="151" y="-66"/>
      <point x="166" y="-66" type="curve" smooth="yes"/>
      <point x="198" y="-67"/>
      <point x="250" y="-33"/>
      <point x="263" y="70" type="curve" smooth="yes"/>
      <point x="267" y="102"/>
      <point x="249" y="124"/>
      <point x="212" y="124" type="curve" smooth="yes"/>
      <point x="178" y="124"/>
      <point x="155" y="104"/>
      <point x="157" y="77" type="curve" smooth="yes"/>
      <point x="162" y="12"/>
      <point x="136" y="-25"/>
      <point x="139" y="-47" type="curve" smooth="yes"/>
      <point x="141" y="-58"/>
    </contour>
    <contour>
      <point x="231" y="222" type="curve" smooth="yes"/>
      <point x="276" y="222"/>
      <point x="301" y="253"/>
      <point x="301" y="295" type="curve" smooth="yes"/>
      <point x="301" y="335"/>
      <point x="277" y="358"/>
      <point x="237" y="358" type="curve" smooth="yes"/>
      <point x="193" y="358"/>
      <point x="169" y="327"/>
      <point x="169" y="285" type="curve" smooth="yes"/>
      <point x="169" y="246"/>
      <point x="192" y="222"/>
    </contour>
  </outline>
</glyph>
<glyph name="equal" format="1">
  <advance width="583"/>
  <unicode hex="003D"/>
  <outline>
    <contour>
      <point x="113" y="104"/>
      <point x="137" y="92"/>
      <point x="177" y="92" type="curve" smooth="yes"/>
      <point x="508" y="92" type="line" smooth="yes"/>
      <point x="548" y="92"/>
      <point x="568" y="106"/>
      <point x="560" y="141" type="curve" smooth="yes"/>
      <point x="555" y="162"/>
      <point x="541" y="168"/>
      <point x="507" y="168" type="curve" smooth="yes"/>
      <point x="179" y="168" type="line" smooth="yes"/>
      <point x="140" y="168"/>
      <point x="113" y="165"/>
      <point x="113" y="142" type="curve" smooth="yes"/>
    </contour>
    <contour>
      <point x="121" y="248"/>
      <point x="145" y="239"/>
      <point x="173" y="239" type="curve" smooth="yes"/>
      <point x="500" y="239" type="line" smooth="yes"/>
      <point x="548" y="239"/>
      <point x="568" y="247"/>
      <point x="568" y="287" type="curve" smooth="yes"/>
      <point x="568" y="318"/>
      <point x="547" y="322"/>
      <point x="512" y="322" type="curve" smooth="yes"/>
      <point x="448" y="322"/>
      <point x="253" y="319"/>
      <point x="198" y="319" type="curve"/>
      <point x="160" y="320"/>
      <point x="121" y="322"/>
      <point x="121" y="277" type="curve" smooth="yes"/>
    </contour>
  </outline>
</glyph>
<glyph name="B" format="1">
  <advance width="609.004"/>
  <unicode hex="0042"/>
  <outline>
    <contour>
      <point x="223" y="-90" type="curve" smooth="yes"/>
      <point x="414" y="-90"/>
      <point x="598" y="39"/>
      <point x="598" y="176" type="curve" smooth="yes"/>
      <point x="598" y="253"/>
      <point x="511" y="303"/>
      <point x="453" y="307" type="curve"/>
      <point x="576" y="307"/>
      <point x="640" y="398"/>
      <point x="653" y="458" type="curve" smooth="yes"/>
      <point x="677" y="564"/>
      <point x="587" y="681"/>
      <point x="370" y="681" type="curve" smooth="yes"/>
      <point x="197" y="681"/>
      <point x="98" y="618"/>
      <point x="31" y="559" type="curve" smooth="yes"/>
      <point x="-4" y="525"/>
      <point x="49" y="451"/>
      <point x="112" y="503" type="curve" smooth="yes"/>
      <point x="178" y="559"/>
      <point x="246" y="593"/>
      <point x="375" y="593" type="curve" smooth="yes"/>
      <point x="499" y="593"/>
      <point x="542" y="532"/>
      <point x="538" y="468" type="curve" smooth="yes"/>
      <point x="534" y="428"/>
      <point x="512" y="334"/>
      <point x="367" y="336" type="curve" smooth="yes"/>
      <point x="334" y="338" type="line"/>
      <point x="308" y="337"/>
      <point x="282" y="334"/>
      <point x="282" y="308" type="curve" smooth="yes"/>
      <point x="280" y="255"/>
      <point x="484" y="301"/>
      <point x="484" y="171" type="curve" smooth="yes"/>
      <point x="484" y="85"/>
      <point x="365" y="-13"/>
      <point x="213" y="-13" type="curve" smooth="yes"/>
      <point x="179" y="-13"/>
      <point x="180" y="-8"/>
      <point x="180" y="15" type="curve" smooth="yes"/>
      <point x="180" y="163"/>
      <point x="215" y="397"/>
      <point x="283" y="480" type="curve"/>
      <point x="271" y="501"/>
      <point x="256" y="512"/>
      <point x="233" y="512" type="curve" smooth="yes"/>
      <point x="138" y="512"/>
      <point x="63" y="350"/>
      <point x="63" y="-23" type="curve" smooth="yes"/>
      <point x="63" y="-65"/>
      <point x="124" y="-90"/>
    </contour>
    <contour>
      <point x="417" y="708" type="move" name="top"/>
    </contour>
  </outline>
</glyph>
<glyph name="I" format="1">
  <advance width="346"/>
  <unicode hex="0049"/>
  <outline>
    <contour>
      <point x="19" y="-33" type="curve" smooth="yes"/>
      <point x="35" y="-38"/>
      <point x="180" y="-13"/>
      <point x="283" y="-9" type="curve" smooth="yes"/>
      <point x="337" y="-7"/>
      <point x="340" y="52"/>
      <point x="314" y="63" type="curve" smooth="yes"/>
      <point x="293" y="71"/>
      <point x="197" y="74"/>
      <point x="221" y="71" type="curve"/>
      <point x="222" y="181"/>
      <point x="313" y="487"/>
      <point x="355" y="559" type="curve"/>
      <point x="420" y="559"/>
      <point x="463" y="559"/>
      <point x="469" y="589" type="curve" smooth="yes"/>
      <point x="477" y="630"/>
      <point x="481" y="662"/>
      <point x="447" y="662" type="curve" smooth="yes"/>
      <point x="345" y="662"/>
      <point x="205" y="661"/>
      <point x="178" y="661" type="curve" smooth="yes"/>
      <point x="146" y="661"/>
      <point x="132" y="604"/>
      <point x="145" y="576" type="curve" smooth="yes"/>
      <point x="157" y="550"/>
      <point x="183" y="555"/>
      <point x="265" y="557" type="curve"/>
      <point x="209" y="446"/>
      <point x="148" y="235"/>
      <point x="132" y="67" type="curve"/>
      <point x="93" y="66"/>
      <point x="4" y="53"/>
      <point x="-5" y="23" type="curve" smooth="yes"/>
      <point x="-13" y="-4"/>
      <point x="-2" y="-26"/>
    </contour>
    <contour>
      <point x="174" y="0" type="move" name="ogonek"/>
    </contour>
    <contour>
      <point x="347" y="708" type="move" name="top"/>
    </contour>
  </outline>
</glyph>
<glyph name="R" format="1">
  <advance width="750"/>
  <unicode hex="0052"/>
  <outline>
    <contour>
      <point x="225" y="-145" type="curve" smooth="yes"/>
      <point x="421" y="-145"/>
      <point x="392" y="199"/>
      <point x="434" y="391" type="curve" smooth="yes"/>
      <point x="440" y="411"/>
      <point x="480" y="440"/>
      <point x="483" y="476" type="curve" smooth="yes"/>
      <point x="483" y="503"/>
      <point x="468" y="513"/>
      <point x="443" y="514" type="curve" smooth="yes"/>
      <point x="393" y="514"/>
      <point x="354" y="446"/>
      <point x="347" y="400" type="curve" smooth="yes"/>
      <point x="315" y="191"/>
      <point x="298" y="-31"/>
      <point x="249" y="-48" type="curve" smooth="yes"/>
      <point x="196" y="-66"/>
      <point x="181" y="20"/>
      <point x="183" y="193" type="curve" smooth="yes"/>
      <point x="186" y="441"/>
      <point x="282" y="609"/>
      <point x="458" y="609" type="curve" smooth="yes"/>
      <point x="577" y="609"/>
      <point x="629" y="556"/>
      <point x="630" y="498" type="curve" smooth="yes"/>
      <point x="630" y="423"/>
      <point x="541" y="339"/>
      <point x="394" y="359" type="curve" smooth="yes"/>
      <point x="370" y="362"/>
      <point x="310" y="371"/>
      <point x="299" y="371" type="curve" smooth="yes"/>
      <point x="283" y="371"/>
      <point x="283" y="346"/>
      <point x="283" y="333" type="curve" smooth="yes"/>
      <point x="286" y="269"/>
      <point x="423" y="286"/>
      <point x="463" y="289" type="curve"/>
      <point x="474" y="143"/>
      <point x="633" y="-236"/>
      <point x="805" y="-230" type="curve" smooth="yes"/>
      <point x="904" y="-227"/>
      <point x="965" y="-135"/>
      <point x="971" y="-112" type="curve" smooth="yes"/>
      <point x="975" y="-104"/>
      <point x="966" y="-85"/>
      <point x="956" y="-77" type="curve" smooth="yes"/>
      <point x="945" y="-68"/>
      <point x="928" y="-58"/>
      <point x="918" y="-69" type="curve" smooth="yes"/>
      <point x="864" y="-126"/>
      <point x="834" y="-126"/>
      <point x="803" y="-122" type="curve" smooth="yes"/>
      <point x="703" y="-109"/>
      <point x="590" y="151"/>
      <point x="548" y="298" type="curve"/>
      <point x="682" y="329"/>
      <point x="749" y="417"/>
      <point x="748" y="503" type="curve" smooth="yes"/>
      <point x="747" y="607"/>
      <point x="649" y="710"/>
      <point x="452" y="710" type="curve" smooth="yes"/>
      <point x="234" y="710"/>
      <point x="91" y="515"/>
      <point x="78" y="182" type="curve"/>
      <point x="65" y="-23"/>
      <point x="129" y="-144"/>
    </contour>
    <contour>
      <point x="517" y="708" type="move" name="top"/>
    </contour>
  </outline>
</glyph>
<glyph name="S" format="1">
  <advance width="681"/>
  <unicode hex="0053"/>
  <outline>
    <contour>
      <point x="338" y="-114" type="curve" smooth="yes"/>
      <point x="515" y="-114"/>
      <point x="647" y="-41"/>
      <point x="647" y="91" type="curve" smooth="yes"/>
      <point x="647" y="211"/>
      <point x="571" y="243"/>
      <point x="447" y="309" type="curve" smooth="yes"/>
      <point x="314" y="380"/>
      <point x="269" y="392"/>
      <point x="269" y="454" type="curve" smooth="yes"/>
      <point x="269" y="507"/>
      <point x="321" y="552"/>
      <point x="428" y="551" type="curve" smooth="yes"/>
      <point x="518" y="550"/>
      <point x="563" y="521"/>
      <point x="563" y="474" type="curve" smooth="yes"/>
      <point x="563" y="444"/>
      <point x="550" y="422"/>
      <point x="531" y="405" type="curve" smooth="yes"/>
      <point x="523" y="395"/>
      <point x="519" y="385"/>
      <point x="519" y="375" type="curve" smooth="yes"/>
      <point x="519" y="352"/>
      <point x="540" y="332"/>
      <point x="567" y="332" type="curve" smooth="yes"/>
      <point x="571" y="332"/>
      <point x="574" y="332"/>
      <point x="578" y="333" type="curve" smooth="yes"/>
      <point x="593" y="336"/>
      <point x="609" y="344"/>
      <point x="625" y="360" type="curve" smooth="yes"/>
      <point x="649" y="386"/>
      <point x="670" y="425"/>
      <point x="671" y="474" type="curve" smooth="yes"/>
      <point x="668" y="579"/>
      <point x="566" y="632"/>
      <point x="433" y="632" type="curve" smooth="yes"/>
      <point x="292" y="632"/>
      <point x="142" y="569"/>
      <point x="142" y="446" type="curve" smooth="yes"/>
      <point x="142" y="336"/>
      <point x="220" y="305"/>
      <point x="317" y="253" type="curve" smooth="yes"/>
      <point x="419" y="198"/>
      <point x="520" y="167"/>
      <point x="520" y="84" type="curve" smooth="yes"/>
      <point x="520" y="19"/>
      <point x="472" y="-26"/>
      <point x="342" y="-26" type="curve" smooth="yes"/>
      <point x="228" y="-26"/>
      <point x="168" y="4"/>
      <point x="162" y="81" type="curve" smooth="yes"/>
      <point x="158" y="134"/>
      <point x="190" y="139"/>
      <point x="190" y="173" type="curve" smooth="yes"/>
      <point x="190" y="192"/>
      <point x="177" y="203"/>
      <point x="157" y="203" type="curve" smooth="yes"/>
      <point x="85" y="203"/>
      <point x="45" y="136"/>
      <point x="49" y="79" type="curve" smooth="yes"/>
      <point x="58" y="-56"/>
      <point x="191" y="-114"/>
    </contour>
    <contour>
      <point x="342" y="-89" type="move" name="bot"/>
    </contour>
    <contour>
      <point x="507" y="708" type="move" name="top"/>
    </contour>
  </outline>
</glyph>
<glyph name="underscore" format="1">
  <advance width="456"/>
  <unicode hex="005F"/>
  <outline>
    <contour>
      <point x="74" y="-84"/>
      <point x="92" y="-97"/>
      <point x="130" y="-97" type="curve" smooth="yes"/>
      <point x="374" y="-97" type="line"/>
      <point x="421" y="-97"/>
      <point x="432" y="-87"/>
      <point x="435" y="-60" type="curve" smooth="yes"/>
      <point x="437" y="-39"/>
      <point x="428" y="-26"/>
      <point x="390" y="-26" type="curve"/>
      <point x="148" y="-26" type="line"/>
      <point x="107" y="-26"/>
      <point x="81" y="-29"/>
      <point x="78" y="-54" type="curve" smooth="yes"/>
    </contour>
  </outline>
</glyph>
<glyph name="grave" format="1">
  <advance width="208"/>
  <unicode hex="0060"/>
  <outline>
    <contour>
      <point x="125" y="442" type="curve" smooth="yes"/>
      <point x="110" y="461"/>
      <point x="44" y="555"/>
      <point x="31" y="573" type="curve" smooth="yes"/>
      <point x="-10" y="630"/>
      <point x="-83" y="559"/>
      <point x="-37" y="519" type="curve" smooth="yes"/>
      <point x="-22" y="506"/>
      <point x="74" y="429"/>
      <point x="97" y="410" type="curve" smooth="yes"/>
      <point x="108" y="401"/>
      <point x="125" y="401"/>
      <point x="131" y="409" type="curve" smooth="yes"/>
      <point x="137" y="417"/>
      <point x="137" y="426"/>
    </contour>
    <contour>
      <point x="117" y="343" type="move" name="_top"/>
    </contour>
  </outline>
</glyph>
<glyph name="f" format="1">
  <advance width="260"/>
  <unicode hex="0066"/>
  <outline>
    <contour>
      <point x="99" y="-261" type="curve" smooth="yes"/>
      <point x="190" y="-228"/>
      <point x="230" y="-130"/>
      <point x="230" y="-64" type="curve" smooth="yes"/>
      <point x="230" y="-4"/>
      <point x="215" y="88"/>
      <point x="202" y="134" type="curve"/>
      <point x="267" y="150"/>
      <point x="355" y="141"/>
      <point x="352" y="215" type="curve" smooth="yes"/>
      <point x="351" y="231"/>
      <point x="343" y="245"/>
      <point x="335" y="245" type="curve" smooth="yes"/>
      <point x="334" y="245"/>
      <point x="338" y="244"/>
      <point x="342" y="249" type="curve" smooth="yes"/>
      <point x="280" y="221"/>
      <point x="259" y="208"/>
      <point x="198" y="208" type="curve" smooth="yes"/>
      <point x="187" y="208"/>
      <point x="184" y="205"/>
      <point x="177" y="204" type="curve"/>
      <point x="212" y="253"/>
      <point x="333" y="399"/>
      <point x="336" y="538" type="curve" smooth="yes"/>
      <point x="337" y="589"/>
      <point x="311" y="620"/>
      <point x="264" y="620" type="curve" smooth="yes"/>
      <point x="68" y="620"/>
      <point x="12" y="102"/>
      <point x="12" y="-90" type="curve" smooth="yes"/>
      <point x="12" y="-173"/>
      <point x="20" y="-286"/>
    </contour>
    <contour>
      <point x="112" y="-185" type="curve" smooth="yes"/>
      <point x="102" y="-187"/>
      <point x="100" y="-127"/>
      <point x="100" y="-79" type="curve" smooth="yes"/>
      <point x="100" y="-18"/>
      <point x="111" y="113"/>
      <point x="110" y="175" type="curve"/>
      <point x="139" y="125"/>
      <point x="156" y="-3"/>
      <point x="156" y="-91" type="curve" smooth="yes"/>
      <point x="156" y="-114"/>
      <point x="166" y="-182"/>
    </contour>
    <contour>
      <point x="135" y="241" type="curve"/>
      <point x="139" y="243"/>
      <point x="181" y="525"/>
      <point x="253" y="525" type="curve" smooth="yes"/>
      <point x="261" y="525"/>
      <point x="263" y="513"/>
      <point x="263" y="494" type="curve" smooth="yes"/>
      <point x="263" y="396"/>
      <point x="126" y="228"/>
    </contour>
    <contour>
      <point x="289" y="620" type="move" name="top"/>
    </contour>
  </outline>
</glyph>
<glyph name="r" format="1">
  <advance width="282"/>
  <unicode hex="0072"/>
  <outline>
    <contour>
      <point x="75" y="0" type="curve" smooth="yes"/>
      <point x="106" y="0"/>
      <point x="118" y="13"/>
      <point x="127" y="30" type="curve"/>
      <point x="175" y="161"/>
      <point x="209" y="212"/>
      <point x="218" y="253" type="curve" smooth="yes"/>
      <point x="183" y="182"/>
      <point x="188" y="131"/>
      <point x="294" y="139" type="curve" smooth="yes"/>
      <point x="336" y="143"/>
      <point x="382" y="170"/>
      <point x="411" y="193" type="curve" smooth="yes"/>
      <point x="423" y="203"/>
      <point x="390" y="246"/>
      <point x="375" y="244" type="curve" smooth="yes"/>
      <point x="302" y="215"/>
      <point x="268" y="210"/>
      <point x="279" y="227" type="curve" smooth="yes"/>
      <point x="306" y="293"/>
      <point x="314" y="329"/>
      <point x="249" y="329" type="curve" smooth="yes"/>
      <point x="211" y="329"/>
      <point x="126" y="201"/>
      <point x="104" y="135" type="curve"/>
      <point x="117" y="162"/>
      <point x="135" y="254"/>
      <point x="142" y="286" type="curve" smooth="yes"/>
      <point x="148" y="308"/>
      <point x="133" y="330"/>
      <point x="109" y="330" type="curve" smooth="yes"/>
      <point x="81" y="330"/>
      <point x="65" y="315"/>
      <point x="52" y="281" type="curve" smooth="yes"/>
      <point x="34" y="220"/>
      <point x="25" y="150"/>
      <point x="26" y="81" type="curve" smooth="yes"/>
      <point x="24" y="43"/>
      <point x="33" y="0"/>
    </contour>
    <contour>
      <point x="257" y="343" type="move" name="top"/>
    </contour>
  </outline>
</glyph>
<glyph name="z" format="1">
  <advance width="224"/>
  <unicode hex="007A"/>
  <outline>
    <contour>
      <point x="296" y="64" type="curve" smooth="yes"/>
      <point x="320" y="83"/>
      <point x="306" y="136"/>
      <point x="287" y="124" type="curve" smooth="yes"/>
      <point x="126" y="30"/>
      <point x="80" y="70"/>
      <point x="79" y="91" type="curve"/>
      <point x="94" y="100"/>
      <point x="226" y="213"/>
      <point x="240" y="224" type="curve" smooth="yes"/>
      <point x="258" y="242"/>
      <point x="257" y="273"/>
      <point x="257" y="287" type="curve" smooth="yes"/>
      <point x="257" y="299"/>
      <point x="243" y="319"/>
      <point x="216" y="319" type="curve" smooth="yes"/>
      <point x="199" y="319"/>
      <point x="117" y="318"/>
      <point x="58" y="318" type="curve" smooth="yes"/>
      <point x="6" y="318"/>
      <point x="31" y="245"/>
      <point x="47" y="245" type="curve" smooth="yes"/>
      <point x="71" y="245"/>
      <point x="147" y="249"/>
      <point x="188" y="255" type="curve"/>
      <point x="39" y="145" type="line"/>
      <point x="25" y="135"/>
      <point x="6" y="114"/>
      <point x="0" y="89" type="curve" smooth="yes"/>
      <point x="-22" y="-13"/>
      <point x="149" y="-47"/>
    </contour>
    <contour>
      <point x="207" y="343" type="move" name="top"/>
    </contour>
  </outline>
</glyph>
<glyph name="bar" format="1">
  <advance width="460"/>
  <unicode hex="007C"/>
  <outline>
    <contour>
      <point x="191" y="-3" type="line" smooth="yes"/>
      <point x="175" y="-66"/>
      <point x="260" y="-83"/>
      <point x="275" y="-22" type="curve" smooth="yes"/>
      <point x="439" y="649" type="line" smooth="yes"/>
      <point x="455" y="719"/>
      <point x="379" y="733"/>
      <point x="361" y="661" type="curve" smooth="yes"/>
    </contour>
  </outline>
</glyph>
<glyph name="macron" format="1">
  <advance width="205"/>
  <unicode hex="00AF"/>
  <outline>
    <contour>
      <point x="-16" y="426" type="curve" smooth="yes"/>
      <point x="56" y="442"/>
      <point x="157" y="435"/>
      <point x="214" y="435" type="curve" smooth="yes"/>
      <point x="243" y="435"/>
      <point x="252" y="436"/>
      <point x="257" y="453" type="curve" smooth="yes"/>
      <point x="264" y="482"/>
      <point x="244" y="491"/>
      <point x="228" y="498" type="curve" smooth="yes"/>
      <point x="182" y="516"/>
      <point x="68" y="523"/>
      <point x="-7" y="512" type="curve" smooth="yes"/>
      <point x="-53" y="505"/>
      <point x="-58" y="476"/>
      <point x="-56" y="458" type="curve" smooth="yes"/>
      <point x="-56" y="439"/>
      <point x="-39" y="419"/>
    </contour>
    <contour>
      <point x="88" y="478" type="move" name="_mid"/>
    </contour>
    <contour>
      <point x="96" y="343" type="move" name="_top"/>
    </contour>
  </outline>
</glyph>
<glyph name="ordmasculine" format="1">
  <advance width="273"/>
  <unicode hex="00BA"/>
  <outline>
    <contour>
      <point x="131" y="338" type="curve" smooth="yes"/>
      <point x="104" y="338"/>
      <point x="94" y="360"/>
      <point x="94" y="391" type="curve" smooth="yes"/>
      <point x="94" y="430"/>
      <point x="113" y="495"/>
      <point x="148" y="495" type="curve" smooth="yes"/>
      <point x="171" y="495"/>
      <point x="177" y="465"/>
      <point x="177" y="437" type="curve" smooth="yes"/>
      <point x="177" y="401"/>
      <point x="161" y="338"/>
    </contour>
    <contour>
      <point x="121" y="268" type="curve" smooth="yes"/>
      <point x="209" y="268"/>
      <point x="253" y="359"/>
      <point x="253" y="445" type="curve" smooth="yes"/>
      <point x="253" y="506"/>
      <point x="229" y="565"/>
      <point x="165" y="565" type="curve" smooth="yes"/>
      <point x="78" y="565"/>
      <point x="18" y="490"/>
      <point x="18" y="403" type="curve" smooth="yes"/>
      <point x="18" y="333"/>
      <point x="48" y="268"/>
    </contour>
  </outline>
</glyph>
<glyph name="dotlessi" format="1">
  <advance width="218"/>
  <unicode hex="0131"/>
  <outline>
    <contour>
      <point x="122" y="-3" type="curve" smooth="yes"/>
      <point x="176" y="-11"/>
      <point x="242" y="19"/>
      <point x="297" y="85" type="curve" smooth="yes"/>
      <point x="304" y="94"/>
      <point x="310" y="99"/>
      <point x="310" y="107" type="curve" smooth="yes"/>
      <point x="311" y="135"/>
      <point x="292" y="149"/>
      <point x="272" y="149" type="curve" smooth="yes"/>
      <point x="263" y="149"/>
      <point x="256" y="145"/>
      <point x="249" y="137" type="curve" smooth="yes"/>
      <point x="175" y="52"/>
      <point x="124" y="55"/>
      <point x="124" y="111" type="curve" smooth="yes"/>
      <point x="124" y="160"/>
      <point x="155" y="257"/>
      <point x="180" y="303" type="curve" smooth="yes"/>
      <point x="192" y="328"/>
      <point x="163" y="345"/>
      <point x="144" y="347" type="curve" smooth="yes"/>
      <point x="121" y="350"/>
      <point x="104" y="342"/>
      <point x="89" y="314" type="curve" smooth="yes"/>
      <point x="61" y="261"/>
      <point x="34" y="161"/>
      <point x="34" y="101" type="curve" smooth="yes"/>
      <point x="34" y="43"/>
      <point x="68" y="4"/>
    </contour>
    <contour>
      <point x="173" y="343" type="move" name="top"/>
    </contour>
  </outline>
</glyph>
<glyph name="circumflex" format="1">
  <advance width="295"/>
  <unicode hex="02C6"/>
  <outline>
    <contour>
      <point x="175" y="406" type="curve" smooth="yes"/>
      <point x="183" y="369"/>
      <point x="250" y="386"/>
      <point x="240" y="423" type="curve" smooth="yes"/>
      <point x="216" y="516" type="line" smooth="yes"/>
      <point x="203" y="565"/>
      <point x="195" y="582"/>
      <point x="164" y="585" type="curve" smooth="yes"/>
      <point x="124" y="589"/>
      <point x="107" y="563"/>
      <point x="90" y="535" type="curve" smooth="yes"/>
      <point x="28" y="432" type="line" smooth="yes"/>
      <point x="7" y="396"/>
      <point x="62" y="369"/>
      <point x="85" y="408" type="curve" smooth="yes"/>
      <point x="89" y="415"/>
      <point x="142" y="499"/>
      <point x="148" y="509" type="curve"/>
      <point x="150" y="497"/>
      <point x="172" y="417"/>
    </contour>
    <contour>
      <point x="130" y="343" type="move" name="_top"/>
    </contour>
  </outline>
</glyph>
<glyph name="caron" format="1">
  <advance width="295"/>
  <unicode hex="02C7"/>
  <outline>
    <contour>
      <point x="117" y="558" type="curve" smooth="yes"/>
      <point x="108" y="594"/>
      <point x="43" y="577"/>
      <point x="54" y="540" type="curve" smooth="yes"/>
      <point x="81" y="450" type="line" smooth="yes"/>
      <point x="95" y="402"/>
      <point x="103" y="385"/>
      <point x="134" y="382" type="curve" smooth="yes"/>
      <point x="174" y="378"/>
      <point x="189" y="404"/>
      <point x="205" y="431" type="curve" smooth="yes"/>
      <point x="262" y="532" type="line" smooth="yes"/>
      <point x="282" y="567"/>
      <point x="227" y="594"/>
      <point x="205" y="555" type="curve" smooth="yes"/>
      <point x="202" y="549"/>
      <point x="152" y="467"/>
      <point x="147" y="456" type="curve"/>
      <point x="145" y="468"/>
      <point x="120" y="546"/>
    </contour>
    <contour>
      <point x="129" y="343" type="move" name="_top"/>
    </contour>
  </outline>
</glyph>
<glyph name="breve" format="1">
  <advance width="205"/>
  <unicode hex="02D8"/>
  <outline>
    <contour>
      <point x="176" y="553" type="curve" smooth="yes"/>
      <point x="168" y="483"/>
      <point x="76" y="489"/>
      <point x="73" y="544" type="curve" smooth="yes"/>
      <point x="71" y="574"/>
      <point x="11" y="571"/>
      <point x="12" y="540" type="curve" smooth="yes"/>
      <point x="14" y="480"/>
      <point x="45" y="435"/>
      <point x="126" y="439" type="curve" smooth="yes"/>
      <point x="184" y="442"/>
      <point x="231" y="476"/>
      <point x="235" y="551" type="curve" smooth="yes"/>
      <point x="236" y="572"/>
      <point x="179" y="580"/>
    </contour>
    <contour>
      <point x="111" y="343" type="move" name="_top"/>
    </contour>
  </outline>
</glyph>
<glyph name="hungarumlaut" format="1">
  <advance width="350"/>
  <unicode hex="02DD"/>
  <outline>
    <contour>
      <point x="95" y="380" type="curve" smooth="yes"/>
      <point x="116" y="410"/>
      <point x="192" y="513"/>
      <point x="213" y="540" type="curve" smooth="yes"/>
      <point x="275" y="622"/>
      <point x="171" y="661"/>
      <point x="138" y="600" type="curve" smooth="yes"/>
      <point x="124" y="574"/>
      <point x="58" y="443"/>
      <point x="46" y="418" type="curve" smooth="yes"/>
      <point x="26" y="377"/>
      <point x="75" y="352"/>
    </contour>
    <contour>
      <point x="268" y="364" type="curve" smooth="yes"/>
      <point x="297" y="397"/>
      <point x="414" y="532"/>
      <point x="436" y="555" type="curve" smooth="yes"/>
      <point x="483" y="606"/>
      <point x="411" y="677"/>
      <point x="356" y="601" type="curve" smooth="yes"/>
      <point x="335" y="572"/>
      <point x="238" y="430"/>
      <point x="219" y="402" type="curve" smooth="yes"/>
      <point x="193" y="370"/>
      <point x="245" y="338"/>
    </contour>
    <contour>
      <point x="151" y="343" type="move" name="_top"/>
    </contour>
  </outline>
</glyph>
<glyph name="uni0312" format="1">
  <advance width="205"/>
  <unicode hex="0312"/>
  <outline>
    <contour>
      <point x="168" y="609" type="curve" smooth="yes"/>
      <point x="109" y="575"/>
      <point x="50" y="520"/>
      <point x="41" y="456" type="curve" smooth="yes"/>
      <point x="36" y="421"/>
      <point x="48" y="399"/>
      <point x="85" y="400" type="curve" smooth="yes"/>
      <point x="117" y="401"/>
      <point x="132" y="421"/>
      <point x="137" y="442" type="curve" smooth="yes"/>
      <point x="154" y="506"/>
      <point x="162" y="526"/>
      <point x="200" y="579" type="curve" smooth="yes"/>
      <point x="215" y="599"/>
      <point x="187" y="619"/>
    </contour>
    <contour>
      <point x="86" y="343" type="move" name="_top"/>
    </contour>
  </outline>
</glyph>
<glyph name="Omega" format="1">
  <advance width="904"/>
  <unicode hex="03A9"/>
  <outline>
    <contour>
      <point x="701" y="47" type="curve"/>
      <point x="955" y="220"/>
      <point x="915" y="697"/>
      <point x="536" y="697" type="curve" smooth="yes"/>
      <point x="168" y="697"/>
      <point x="52" y="241"/>
      <point x="258" y="58" type="curve"/>
      <point x="224" y="58"/>
      <point x="200" y="59"/>
      <point x="177" y="58" type="curve" smooth="yes"/>
      <point x="155" y="58"/>
      <point x="148" y="34"/>
      <point x="151" y="19" type="curve" smooth="yes"/>
      <point x="153" y="8"/>
      <point x="172" y="-16"/>
      <point x="194" y="-17" type="curve" smooth="yes"/>
      <point x="258" y="-19"/>
      <point x="312" y="-15"/>
      <point x="458" y="-13" type="curve"/>
      <point x="452" y="50" type="line"/>
      <point x="115" y="83"/>
      <point x="205" y="617"/>
      <point x="534" y="617" type="curve" smooth="yes"/>
      <point x="861" y="617"/>
      <point x="863" y="84"/>
      <point x="521" y="50" type="curve"/>
      <point x="508" y="-12" type="line"/>
      <point x="622" y="-27"/>
      <point x="712" y="-32"/>
      <point x="778" y="-24" type="curve" smooth="yes"/>
      <point x="798" y="-21"/>
      <point x="820" y="-1"/>
      <point x="823" y="11" type="curve" smooth="yes"/>
      <point x="827" y="29"/>
      <point x="824" y="53"/>
      <point x="797" y="51" type="curve" smooth="yes"/>
      <point x="771" y="48"/>
      <point x="741" y="47"/>
    </contour>
  </outline>
</glyph>
<glyph name="quotedblright" format="1">
  <advance width="537.999"/>
  <unicode hex="201D"/>
  <outline>
    <contour>
      <point x="319" y="383" type="curve" smooth="yes"/>
      <point x="338" y="381"/>
      <point x="350" y="391"/>
      <point x="358" y="412" type="curve" smooth="yes"/>
      <point x="378" y="463"/>
      <point x="409" y="554"/>
      <point x="425" y="596" type="curve" smooth="yes"/>
      <point x="434" y="621"/>
      <point x="417" y="635"/>
      <point x="398" y="639" type="curve" smooth="yes"/>
      <point x="361" y="647"/>
      <point x="337" y="637"/>
      <point x="332" y="612" type="curve" smooth="yes"/>
      <point x="320" y="553"/>
      <point x="302" y="453"/>
      <point x="296" y="421" type="curve" smooth="yes"/>
      <point x="292" y="399"/>
      <point x="297" y="385"/>
    </contour>
    <contour>
      <point x="175" y="384" type="curve" smooth="yes"/>
      <point x="195" y="382"/>
      <point x="206" y="391"/>
      <point x="212" y="410" type="curve" smooth="yes"/>
      <point x="218" y="429"/>
      <point x="259" y="556"/>
      <point x="271" y="597" type="curve" smooth="yes"/>
      <point x="279" y="625"/>
      <point x="262" y="637"/>
      <point x="239" y="639" type="curve" smooth="yes"/>
      <point x="213" y="641"/>
      <point x="188" y="637"/>
      <point x="182" y="604" type="curve" smooth="yes"/>
      <point x="175" y="565"/>
      <point x="160" y="472"/>
      <point x="154" y="420" type="curve" smooth="yes"/>
      <point x="152" y="400"/>
      <point x="153" y="386"/>
    </contour>
  </outline>
</glyph>
<glyph name="Euro" format="1">
  <advance width="634"/>
  <unicode hex="20AC"/>
  <outline>
    <contour>
      <point x="299" y="-69" type="curve" smooth="yes"/>
      <point x="453" y="-69"/>
      <point x="548" y="12"/>
      <point x="584" y="73" type="curve" smooth="yes"/>
      <point x="600" y="101"/>
      <point x="544" y="144"/>
      <point x="519" y="119" type="curve" smooth="yes"/>
      <point x="472" y="72"/>
      <point x="406" y="20"/>
      <point x="311" y="31" type="curve" smooth="yes"/>
      <point x="235" y="40"/>
      <point x="202" y="85"/>
      <point x="202" y="161" type="curve"/>
      <point x="202" y="156"/>
      <point x="202" y="168"/>
      <point x="202" y="167" type="curve"/>
      <point x="323" y="167" type="line"/>
      <point x="354" y="167"/>
      <point x="365" y="174"/>
      <point x="368" y="205" type="curve" smooth="yes"/>
      <point x="370" y="228"/>
      <point x="352" y="227"/>
      <point x="329" y="227" type="curve" smooth="yes"/>
      <point x="209" y="227" type="line"/>
      <point x="210" y="237"/>
      <point x="221" y="289"/>
      <point x="225" y="297" type="curve"/>
      <point x="354" y="297" type="line"/>
      <point x="388" y="297"/>
      <point x="398" y="306"/>
      <point x="401" y="324" type="curve" smooth="yes"/>
      <point x="405" y="349"/>
      <point x="389" y="359"/>
      <point x="366" y="359" type="curve" smooth="yes"/>
      <point x="246" y="359" type="line"/>
      <point x="282" y="459"/>
      <point x="342" y="518"/>
      <point x="426" y="526" type="curve" smooth="yes"/>
      <point x="507" y="534"/>
      <point x="532" y="479"/>
      <point x="523" y="437" type="curve" smooth="yes"/>
      <point x="514" y="394"/>
      <point x="584" y="387"/>
      <point x="601" y="424" type="curve" smooth="yes"/>
      <point x="636" y="502"/>
      <point x="599" y="613"/>
      <point x="439" y="613" type="curve" smooth="yes"/>
      <point x="272" y="613"/>
      <point x="174" y="487"/>
      <point x="127" y="359" type="curve"/>
      <point x="97" y="359" type="line"/>
      <point x="71" y="359"/>
      <point x="53" y="348"/>
      <point x="48" y="324" type="curve" smooth="yes"/>
      <point x="44" y="303"/>
      <point x="60" y="297"/>
      <point x="89" y="297" type="curve" smooth="yes"/>
      <point x="102" y="297" type="line"/>
      <point x="99" y="291"/>
      <point x="87" y="239"/>
      <point x="87" y="227" type="curve"/>
      <point x="62" y="227" type="line"/>
      <point x="24" y="227"/>
      <point x="9" y="167"/>
      <point x="69" y="167" type="curve" smooth="yes"/>
      <point x="82" y="167" type="line"/>
      <point x="82" y="165" type="line"/>
      <point x="82" y="21"/>
      <point x="165" y="-69"/>
    </contour>
  </outline>
</glyph>
<glyph name="partialdiff" format="1">
  <advance width="478.004"/>
  <unicode hex="2202"/>
  <outline>
    <contour>
      <point x="256" y="0" type="curve" smooth="yes"/>
      <point x="398" y="6"/>
      <point x="494" y="138"/>
      <point x="484" y="328" type="curve" smooth="yes"/>
      <point x="479" y="431"/>
      <point x="428" y="605"/>
      <point x="263" y="605" type="curve" smooth="yes"/>
      <point x="208" y="605"/>
      <point x="193" y="544"/>
      <point x="245" y="532" type="curve" smooth="yes"/>
      <point x="339" y="510"/>
      <point x="375" y="455"/>
      <point x="375" y="339" type="curve"/>
      <point x="253" y="334"/>
      <point x="104" y="302"/>
      <point x="104" y="142" type="curve" smooth="yes"/>
      <point x="104" y="52"/>
      <point x="158" y="-4"/>
    </contour>
    <contour>
      <point x="204" y="54"/>
      <point x="196" y="143" type="curve" smooth="yes"/>
      <point x="188" y="229"/>
      <point x="299" y="280"/>
      <point x="375" y="260" type="curve"/>
      <point x="383" y="59"/>
    </contour>
  </outline>
</glyph>
<glyph name="lozenge" format="1">
  <advance width="530"/>
  <unicode hex="25CA"/>
  <outline>
    <contour>
      <point x="402" y="476" type="line"/>
      <point x="388" y="511"/>
      <point x="337" y="530"/>
      <point x="307" y="484" type="curve" smooth="yes"/>
      <point x="249" y="396"/>
      <point x="201" y="328"/>
      <point x="152" y="253" type="curve"/>
      <point x="242" y="28" type="line"/>
      <point x="256" y="-7"/>
      <point x="306" y="-26"/>
      <point x="336" y="21" type="curve" smooth="yes"/>
      <point x="394" y="110"/>
      <point x="439" y="173"/>
      <point x="489" y="248" type="curve"/>
    </contour>
    <contour>
      <point x="237" y="253" type="line"/>
      <point x="273" y="310"/>
      <point x="311" y="365"/>
      <point x="340" y="409" type="curve"/>
      <point x="399" y="248" type="line"/>
      <point x="361" y="191"/>
      <point x="330" y="133"/>
      <point x="304" y="89" type="curve"/>
    </contour>
  </outline>
</glyph>
<glyph name="caron.alt" format="1">
  <advance width="600"/>
  <outline>
    <contour>
      <point x="153" y="428" type="curve" smooth="yes"/>
      <point x="195" y="467"/>
      <point x="231" y="509"/>
      <point x="263" y="554" type="curve" smooth="yes"/>
      <point x="305" y="613"/>
      <point x="206" y="672"/>
      <point x="187" y="615" type="curve" smooth="yes"/>
      <point x="169" y="561"/>
      <point x="140" y="495"/>
      <point x="112" y="448" type="curve" smooth="yes"/>
      <point x="93" y="416"/>
      <point x="126" y="403"/>
    </contour>
    <contour>
      <point x="111" y="343" type="move" name="_caron.alt"/>
    </contour>
  </outline>
</glyph>
